<?xml version="1.0" encoding="utf-8"?>
<!-- Generator: Adobe Illustrator 23.0.2, SVG Export Plug-In . SVG Version: 6.00 Build 0)  -->
<svg version="1.1" id="Layer_1" xmlns="http://www.w3.org/2000/svg" xmlns:xlink="http://www.w3.org/1999/xlink" x="0px" y="0px"
	 viewBox="0 0 400 400" style="enable-background:new 0 0 400 400;" xml:space="preserve">
<style type="text/css">
	.st0{fill:#FFFFFF;}
	.st1{fill:#FF0033;}
</style>
<g>
	<circle class="st0" cx="200" cy="200" r="200"/>
	<path class="st1" d="M200,0C89.54,0,0,89.54,0,200c0,110.46,89.54,200,200,200s200-89.54,200-200C400,89.54,310.46,0,200,0z
		 M135.55,320.83c0,1.53-1.24,2.77-2.77,2.77H86.79c-1.53,0-2.77-1.24-2.77-2.77V159.11c0-1.53,1.24-2.77,2.77-2.77h45.99
		c1.53,0,2.77,1.24,2.77,2.77V320.83z M109.78,143.2c-18.86,0-34.15-15.24-34.15-34.05s15.29-34.05,34.15-34.05
		s34.15,15.24,34.15,34.05S128.64,143.2,109.78,143.2z M324.63,240.01v75.83c0,4.84-3.93,8.76-8.78,8.76h-36.83
		c-4.85,0-8.78-3.92-8.78-8.76v-47.7l0.27-34l-0.19,0.01c-0.68-9.06-3.56-22.56-14.42-29.12c-7.42-4.49-15.14-3.66-16.46-3.49
		c-14.13,1.75-20.29,13.4-21.14,14.9c-1.48,2.53-3.86,7.16-5.4,13.31v87.9c0,3.84-3.12,6.94-6.97,6.94h-38.45
		c-3.85,0-6.97-3.11-6.97-6.94V164.28c0-3.84,3.12-6.94,6.97-6.94h38.45c3.85,0,6.97,3.11,6.97,6.94v15.32
		c16.47-20.57,43.97-28.27,69.12-22.26c31.74,7.58,42.62,40.01,42.62,64.04V240.01z"/>
</g>
</svg>
