<?xml version="1.0" encoding="utf-8"?>
<!-- Generator: Adobe Illustrator 23.0.2, SVG Export Plug-In . SVG Version: 6.00 Build 0)  -->
<svg version="1.1" id="Layer_1" xmlns="http://www.w3.org/2000/svg" xmlns:xlink="http://www.w3.org/1999/xlink" x="0px" y="0px"
	 viewBox="0 0 400 400" style="enable-background:new 0 0 400 400;" xml:space="preserve">
<style type="text/css">
	.st0{fill:#FFFFFF;}
	.st1{fill:#FF0033;}
</style>
<g>
	<circle class="st0" cx="200" cy="200" r="200"/>
	<g>
		<path class="st1" d="M254.79,87.83H146.21c-31.67,0-57.43,25.76-57.43,57.43v108.57c0,31.67,25.76,57.43,57.43,57.43h108.57
			c31.67,0,57.43-25.76,57.43-57.43V145.26C312.22,113.6,286.45,87.83,254.79,87.83z M201.58,271.07
			c-38.84,0-70.43-31.6-70.43-70.43s31.6-70.43,70.43-70.43s70.43,31.6,70.43,70.43S240.42,271.07,201.58,271.07z M273.1,145.37
			c-8.98,0-16.25-7.28-16.25-16.25s7.28-16.25,16.25-16.25c8.98,0,16.25,7.28,16.25,16.25S282.08,145.37,273.1,145.37z"/>
		<circle class="st1" cx="201.58" cy="200.64" r="44.43"/>
		<path class="st1" d="M200,0C89.54,0,0,89.54,0,200s89.54,200,200,200s200-89.54,200-200S310.46,0,200,0z M338,253.84
			c0,45.88-37.33,83.21-83.21,83.21H146.21c-45.88,0-83.21-37.33-83.21-83.21V145.26c0-45.88,37.33-83.21,83.21-83.21h108.57
			c45.88,0,83.21,37.33,83.21,83.21V253.84z"/>
	</g>
</g>
</svg>
