<?xml version="1.0" encoding="utf-8"?>
<!-- Generator: Adobe Illustrator 23.0.2, SVG Export Plug-In . SVG Version: 6.00 Build 0)  -->
<svg version="1.1" id="Layer_1" xmlns="http://www.w3.org/2000/svg" xmlns:xlink="http://www.w3.org/1999/xlink" x="0px" y="0px"
	 viewBox="0 0 400 400" style="enable-background:new 0 0 400 400;" xml:space="preserve">
<style type="text/css">
	.st0{fill:#FFFFFF;}
	.st1{fill:#FF0033;}
</style>
<g>
	<circle class="st0" cx="199.5" cy="199.5" r="200"/>
	<g>
		<path class="st1" d="M194.6,162.39c-19.78-35.03-40.92-64.47-44.09-68.7c-33.22,15.7-58.13,46.35-65.83,83.19
			C89.96,176.88,139.04,177.19,194.6,162.39z"/>
		<path class="st1" d="M209.25,202.4c1.51-0.45,3.17-0.91,4.68-1.36c-3.02-6.79-6.19-13.59-9.66-20.23
			c-59.34,17.82-117.02,17.06-122.15,16.91c0,1.21,0,2.42,0,3.62c0,30.5,11.63,58.43,30.5,79.42
			C115.33,276.24,147.94,222.18,209.25,202.4z"/>
		<path class="st1" d="M279.91,112.41c-20.99-18.57-48.62-29.9-78.82-29.9c-9.66,0-19.02,1.06-27.93,3.17
			c3.32,4.53,24.91,33.82,44.39,69.61C259.83,139.44,277.79,115.43,279.91,112.41z"/>
		<path class="st1" d="M221.48,220.82c-67.04,23.4-91.2,69.91-93.31,74.29c20.08,15.7,45.45,25.06,72.93,25.06
			c16.46,0,32.16-3.32,46.5-9.51c-1.81-10.42-8.61-46.81-25.37-90.14C221.93,220.67,221.78,220.67,221.48,220.82z"/>
		<path class="st1" d="M199.7,0C89.24,0-0.3,89.54-0.3,200s89.54,200,200,200s200-89.54,200-200S310.16,0,199.7,0z M201.09,340.4
			c-76.85,0-139.21-62.36-139.21-139.21S124.24,61.98,201.09,61.98c76.7,0,139.21,62.36,139.21,139.21S277.79,340.4,201.09,340.4z"
			/>
		<path class="st1" d="M244.27,215.08c15.55,42.73,21.89,77.46,23.1,84.7c26.72-17.97,45.75-46.5,50.88-79.57
			C314.18,218.86,281.57,209.2,244.27,215.08z"/>
		<path class="st1" d="M226.76,172.96c2.72,5.59,5.44,11.48,7.85,17.21c0.91,2.11,1.66,4.23,2.57,6.19
			c39.56-4.98,78.82,3.02,82.74,3.77c-0.3-27.93-10.27-53.75-26.88-73.98C290.48,129.47,270.55,155.14,226.76,172.96z"/>
	</g>
</g>
</svg>
