<?xml version="1.0" encoding="utf-8"?>
<!-- Generator: Adobe Illustrator 23.0.2, SVG Export Plug-In . SVG Version: 6.00 Build 0)  -->
<svg version="1.1" id="Layer_1" xmlns="http://www.w3.org/2000/svg" xmlns:xlink="http://www.w3.org/1999/xlink" x="0px" y="0px"
	 viewBox="0 0 400 400" style="enable-background:new 0 0 400 400;" xml:space="preserve">
<style type="text/css">
	.st0{fill:#FFFFFF;}
	.st1{fill-rule:evenodd;clip-rule:evenodd;fill:#FF0033;}
</style>
<g>
	<ellipse class="st0" cx="200" cy="200.17" rx="200" ry="199.83"/>
	<path class="st1" d="M199.99,0C89.55,0,0,89.52,0,199.96c0,88.33,57.3,163.28,136.78,189.72c10,1.83,13.65-4.34,13.65-9.64
		c0-4.75-0.17-17.32-0.27-34.01c-55.63,12.08-67.37-26.8-67.37-26.8c-9.09-23.1-22.21-29.25-22.21-29.25
		c-18.16-12.41,1.37-12.15,1.37-12.15c20.07,1.41,30.63,20.61,30.63,20.61c17.84,30.56,46.81,21.73,58.21,16.61
		c1.82-12.92,6.98-21.73,12.7-26.73c-44.41-5.05-91.1-22.2-91.1-98.82c0-21.83,7.79-39.68,20.59-53.65
		c-2.06-5.06-8.92-25.39,1.96-52.92c0,0,16.79-5.38,55,20.5c15.95-4.43,33.06-6.65,50.07-6.73c16.98,0.08,34.09,2.3,50.07,6.73
		c38.18-25.87,54.94-20.5,54.94-20.5c10.91,27.53,4.05,47.86,1.99,52.92c12.82,13.98,20.56,31.83,20.56,53.65
		c0,76.81-46.76,93.72-91.32,98.67c7.18,6.17,13.58,18.38,13.58,37.03c0,26.73-0.25,48.3-0.25,54.85c0,5.35,3.6,11.57,13.75,9.61
		C342.75,363.17,400,288.27,400,199.96C400,89.52,310.45,0,199.99,0z"/>
</g>
</svg>
