<?xml version="1.0" encoding="utf-8"?>
<!-- Generator: Adobe Illustrator 23.0.2, SVG Export Plug-In . SVG Version: 6.00 Build 0)  -->
<svg version="1.1" id="Layer_1" xmlns="http://www.w3.org/2000/svg" xmlns:xlink="http://www.w3.org/1999/xlink" x="0px" y="0px"
	 viewBox="0 0 400 400" style="enable-background:new 0 0 400 400;" xml:space="preserve">
<style type="text/css">
	.st0{fill:#FFFFFF;}
	.st1{fill:#FF0033;}
</style>
<g>
	<circle class="st0" cx="200" cy="200" r="200"/>
	<path class="st1" d="M200,0C89.54,0,0,89.54,0,200s89.54,200,200,200s200-89.54,200-200S310.46,0,200,0z M314.8,139.46
		c0.02,1.18,0.08,2.35,0.08,3.53c0,0.42-0.03,0.83-0.03,1.25c0.01,0.39,0.03,0.78,0.03,1.17c0,1.37-0.06,2.72-0.15,4.07
		c-3.2,91.56-73.61,164.77-160.11,164.97c-0.15,0-0.3,0.01-0.46,0.01c-33.89-0.03-65.31-11.29-91.21-30.45c0.04,0,0.08,0,0.12,0
		c36.04,0,66.35-8.68,75.16-20.46c-19.92-4.24-35.59-16.39-41.04-31.82c-1.31-3.71-2.03-7.62-2.07-11.64
		c3.51,0.41,7.16,0.68,10.92,0.79c-3.74-2.03-7.23-4.4-10.41-7.08c-10.55-8.85-17.78-20.94-19.85-34.54
		c-0.4-2.61-0.62-5.28-0.62-7.99c0-2.64,0.21-5.23,0.59-7.78c5.03,2.23,10.47,4.15,16.24,5.73c-5.26-5.86-9.44-12.38-12.31-19.38
		c-2.91-7.08-4.51-14.63-4.51-22.48c0-11.64,3.48-22.63,9.62-32.36c5.82,9.87,13.02,18.82,21.33,26.61
		c21.35,19.99,50.04,32.25,81.6,32.25c2.88,0,5.73-0.14,8.56-0.34c-0.25-1.85-0.42-3.73-0.5-5.63c-0.03-0.82-0.06-1.65-0.06-2.48
		c0-12.39,3.79-23.9,10.26-33.44c2.76-4.07,6.02-7.77,9.68-11.03c3.38-3.02,7.11-5.66,11.12-7.85c4.25-2.32,8.82-4.14,13.62-5.38
		c1.26-0.33,2.55-0.6,3.85-0.84c3.59-0.67,7.28-1.04,11.06-1.04c8.22,0,16.06,1.67,23.19,4.68c3.95,1.67,7.68,3.77,11.14,6.22
		c2.72,1.92,5.27,4.05,7.63,6.39c4.35-0.89,8.52-2.04,12.46-3.41c6.81-2.38,12.94-5.45,18.15-9.06c1.5-1.04,2.93-2.13,4.28-3.25
		c-0.41,2.02-0.93,4.01-1.51,5.96c-2.92,9.75-7.91,18.6-14.48,26.04c8.29-1.46,15.72-3.95,21.8-7.21
		C337.63,124.78,328.07,135.43,314.8,139.46z"/>
</g>
</svg>
